<svg width="22" height="24" viewBox="0 0 22 24" fill="none" xmlns="http://www.w3.org/2000/svg">
	<path d="M9.61562 14.722L8.3381 16.139L2.56934 9.79L8.31457 3.412L9.59662 4.823L6.17934 8.615L15.5029 8.593C15.9782 8.59182 16.449 8.69411 16.8885 8.89404C17.328 9.09396 17.7275 9.38761 18.0643 9.75821C18.4012 10.1288 18.6686 10.5691 18.8515 11.054C19.0344 11.5388 19.129 12.0587 19.1301 12.584L19.1455 20.584L17.336 20.589L17.3206 12.589C17.3201 12.3264 17.2728 12.0664 17.1814 11.8239C17.0901 11.5815 16.9564 11.3613 16.788 11.176C16.6197 10.9906 16.4199 10.8437 16.2002 10.7437C15.9805 10.6437 15.7451 10.5925 15.5074 10.593L5.88438 10.616L9.61562 14.722Z" fill="currentColor" />
</svg>
