<svg width="35" height="35" viewBox="0 0 35 35" fill="none" xmlns="http://www.w3.org/2000/svg">
	<path d="M7.28158 18.935C6.96479 18.9347 6.65651 19.0375 6.40337 19.228C6.15022 19.4184 5.96598 19.6861 5.87849 19.9906C5.79101 20.2951 5.80504 20.6197 5.91847 20.9155C6.03191 21.2113 6.23857 21.4621 6.5072 21.63L10.4272 25.55C10.5627 25.6854 10.7235 25.7928 10.9005 25.866C11.0775 25.9393 11.2672 25.9769 11.4588 25.9768C11.6503 25.9768 11.84 25.939 12.0169 25.8656C12.1939 25.7923 12.3546 25.6848 12.49 25.5493C12.6254 25.4138 12.7328 25.2529 12.806 25.0759C12.8793 24.8989 12.9169 24.7093 12.9169 24.5177C12.9168 24.3262 12.879 24.1365 12.8056 23.9596C12.7323 23.7826 12.6248 23.6218 12.4893 23.4864L10.8545 21.8531H21.8649C22.2517 21.8531 22.6226 21.6995 22.8961 21.426C23.1696 21.1525 23.3232 20.7816 23.3232 20.3948C23.3232 20.008 23.1696 19.6371 22.8961 19.3636C22.6226 19.0901 22.2517 18.9364 21.8649 18.9364H7.28158V18.935ZM27.7187 16.065C28.0354 16.0653 28.3437 15.9625 28.5969 15.772C28.85 15.5816 29.0343 15.3139 29.1217 15.0094C29.2092 14.7049 29.1952 14.3803 29.0818 14.0845C28.9683 13.7887 28.7617 13.5379 28.493 13.37L24.573 9.44999C24.2994 9.17654 23.9283 9.023 23.5415 9.02313C23.1546 9.02327 22.7837 9.17708 22.5102 9.45072C22.2368 9.72436 22.0832 10.0954 22.0834 10.4823C22.0835 10.8691 22.2373 11.2401 22.511 11.5135L24.1457 13.1469H13.1353C12.7486 13.1469 12.3776 13.3005 12.1041 13.574C11.8306 13.8475 11.677 14.2184 11.677 14.6052C11.677 14.992 11.8306 15.3629 12.1041 15.6364C12.3776 15.9099 12.7486 16.0635 13.1353 16.0635H27.7187V16.065Z" fill="currentColor" />
</svg>
