<svg width="34" height="34" viewBox="0 0 34 34" fill="none" xmlns="http://www.w3.org/2000/svg">
<path d="M32.381 18.3856C32.1116 21.3009 31.0176 24.0791 29.2268 26.3952C27.4361 28.7114 25.0227 30.4696 22.2692 31.4642C19.5156 32.4588 16.5358 32.6486 13.6783 32.0115C10.8208 31.3743 8.20389 29.9366 6.1337 27.8664C4.06353 25.7962 2.62574 23.1792 1.98859 20.3218C1.35144 17.4643 1.54127 14.4845 2.53587 11.7309C3.53047 8.97735 5.2887 6.564 7.60482 4.77326C9.92097 2.98251 12.6992 1.88843 15.6144 1.61902C13.9076 3.9281 13.0863 6.77309 13.2998 9.63654C13.5134 12.5 14.7476 15.1917 16.778 17.2221C18.8084 19.2525 21.5001 20.4867 24.3635 20.7002C27.227 20.9138 30.072 20.0924 32.381 18.3856Z" stroke="black" stroke-width="3" stroke-linecap="round" stroke-linejoin="round"/>
</svg>
